# xmcd CD database file
#
# Track frame offsets:
#	150
#	16794
#	34241
#	52360
#	67197
#	88527
#	103035
#	125699
#	139476
#	158345
#	175455
#	205403
#
# Disc length: 3061 seconds
#
# Revision: 0
# Processed by: cddbd v1.5.2PL0 Copyright (c) Steve Scherf et al.
# Submitted via: CDex 1.51
#
DISCID=b10bf30c
DTITLE=The Juleps - Live at Thurstons 11/18/97
DYEAR=1997
DGENRE=Country
TTITLE0=Ride Easy
TTITLE1=Maries Live
TTITLE2=Poison Love Live
TTITLE3=Blind Spot Live
TTITLE4=The Power it Takes
TTITLE5=Yer Still Standing There
TTITLE6=Dangerously Flirting
TTITLE7=Wild Beautiful Thing Live
TTITLE8=Wrong Again Live
TTITLE9=Wishes Live
TTITLE10=Hottest Thing in Town Live
TTITLE11=Data
EXTD=YEAR: 1997
EXTT0=
EXTT1=
EXTT2=
EXTT3=
EXTT4=
EXTT5=
EXTT6=
EXTT7=
EXTT8=
EXTT9=
EXTT10=
EXTT11=
PLAYORDER=
